<svg viewBox="-64 0 512 512" xmlns="http://www.w3.org/2000/svg"><path d="M336 512H48c-26.453125 0-48-21.523438-48-48V240c0-26.476562 21.546875-48 48-48h288c26.453125 0 48 21.523438 48 48v224c0 26.476562-21.546875 48-48 48zM48 224c-8.8125 0-16 7.167969-16 16v224c0 8.832031 7.1875 16 16 16h288c8.8125 0 16-7.167969 16-16V240c0-8.832031-7.1875-16-16-16zm0 0"/><path d="M304 224c-8.832031 0-16-7.167969-16-16v-80c0-52.929688-43.070312-96-96-96s-96 43.070312-96 96v80c0 8.832031-7.167969 16-16 16s-16-7.167969-16-16v-80C64 57.40625 121.40625 0 192 0s128 57.40625 128 128v80c0 8.832031-7.167969 16-16 16zm0 0"/></svg>